<svg xmlns="http://www.w3.org/2000/svg" width="256" height="256" viewBox="0 0 100 100"><rect width="100" height="100" rx="20" fill="#626262"></rect><path d="M21.27 63L9.57 63L9.57 61.28Q11.55 61.18 12.27 60.37Q13.00 59.57 13.08 58.14Q13.16 56.71 13.16 54.89L13.16 54.89L13.16 32.42Q13.16 31.38 13.21 30.42Q13.26 29.46 13.31 28.68L13.31 28.68Q12.38 28.73 11.44 28.78Q10.51 28.84 9.57 28.89L9.57 28.89L9.57 26.60Q12.48 26.55 15.47 26.50Q18.46 26.44 21.48 26.55L21.48 26.55Q26.52 26.60 29.62 27.72Q32.71 28.84 34.17 30.89Q35.62 32.94 35.62 35.86L35.62 35.86Q35.67 37.88 34.87 39.99Q34.06 42.10 31.96 43.76Q29.85 45.42 25.90 46.26L25.90 46.26Q26.94 46.98 27.72 48.13Q28.50 49.27 29.49 50.78L29.49 50.78L33.02 56.34Q33.91 57.75 34.74 58.87Q35.57 59.98 36.66 60.63Q37.75 61.28 39.37 61.28L39.37 61.28L39.37 63L32.81 63Q31.31 61.65 30.29 60.30Q29.28 58.94 28.19 57.23L28.19 57.23L24.70 51.66Q24.03 50.57 23.17 49.14Q22.31 47.71 21.22 46.72L21.22 46.72Q20.39 46.78 19.48 46.78Q18.57 46.78 17.68 46.72L17.68 46.72L17.68 56.81Q17.68 58.22 17.66 59.23Q17.63 60.24 17.53 60.92L17.53 60.92Q18.15 60.87 18.77 60.84Q19.40 60.82 20.02 60.76Q20.65 60.71 21.27 60.71L21.27 60.71L21.27 63ZM20.91 44.80L20.91 44.80Q23.77 44.70 25.92 43.86Q28.08 43.03 29.33 41.21Q30.58 39.39 30.58 36.43L30.58 36.43Q30.58 34.45 30.03 32.97Q29.49 31.49 28.34 30.50Q27.20 29.51 25.43 29.02Q23.66 28.52 21.27 28.52L21.27 28.52Q19.35 28.52 18.59 29.30Q17.84 30.08 17.76 31.46Q17.68 32.84 17.68 34.71L17.68 34.71L17.68 44.70Q18.51 44.75 19.27 44.80Q20.02 44.85 20.91 44.80ZM57.41 76.26L43.47 76.26L43.53 23.74L57.31 23.74L57.31 26.86L47.43 27.02L47.17 72.98L57.41 73.14L57.41 76.26ZM58.03 63L58.03 61.44Q59.65 61.44 60.27 60.63Q60.89 59.83 61.00 58.40Q61.10 56.97 61.10 55.10L61.10 55.10L61.10 43.24Q61.10 42.41 61.13 41.58Q61.15 40.74 61.31 39.86L61.31 39.86Q60.37 39.91 59.46 39.94Q58.55 39.96 57.62 40.02L57.62 40.02L57.62 37.88L59.23 37.88Q61.47 37.88 62.32 37.44Q63.18 37 63.75 36.48L63.75 36.48L65.26 36.48Q65.37 37.31 65.42 38.53Q65.47 39.76 65.52 41.63L65.52 41.63Q66.30 40.33 67.65 39.08Q69.01 37.83 70.70 37Q72.39 36.17 74.26 36.17L74.26 36.17Q75.71 36.17 76.81 36.95Q77.90 37.73 77.90 39.44L77.90 39.44Q77.90 39.86 77.64 40.46Q77.38 41.06 76.81 41.50Q76.23 41.94 75.30 41.94L75.30 41.94Q74.15 41.89 73.48 41.03Q72.80 40.17 72.96 39.03L72.96 39.03Q71.66 38.98 70.28 39.70Q68.90 40.43 67.71 41.71Q66.51 42.98 65.57 44.70L65.57 44.70L65.63 57.49Q65.63 58.53 65.60 59.33Q65.57 60.14 65.42 61.02L65.42 61.02Q66.25 60.97 67.06 60.95Q67.86 60.92 68.69 60.87L68.69 60.87L68.69 63L58.03 63ZM76.49 23.74L90.43 23.74L90.38 76.26L76.60 76.26L76.60 73.14L86.48 72.98L86.74 27.02L76.49 26.86L76.49 23.74Z" fill="#ffffff"></path></svg>